<svg xmlns="http://www.w3.org/2000/svg" width="42.299" height="42.289" viewBox="0 0 42.299 42.289">
  <path id="FontAwsome_instagram_" data-name="FontAwsome (instagram)" d="M21.079,42.127A10.842,10.842,0,1,0,31.922,52.97,10.825,10.825,0,0,0,21.079,42.127Zm0,17.891a7.049,7.049,0,1,1,7.049-7.049,7.062,7.062,0,0,1-7.049,7.049ZM34.894,41.684a2.529,2.529,0,1,1-2.529-2.529A2.523,2.523,0,0,1,34.894,41.684Zm7.181,2.567c-.16-3.388-.934-6.388-3.416-8.861s-5.473-3.246-8.861-3.416c-3.491-.2-13.956-.2-17.448,0-3.378.16-6.379.934-8.861,3.407S.243,40.853.074,44.241c-.2,3.491-.2,13.956,0,17.448.16,3.388.934,6.388,3.416,8.861S8.963,73.8,12.35,73.966c3.491.2,13.956.2,17.448,0,3.388-.16,6.388-.934,8.861-3.416s3.246-5.473,3.416-8.861c.2-3.491.2-13.947,0-17.439ZM37.565,65.435a7.137,7.137,0,0,1-4.02,4.02c-2.784,1.1-9.389.849-12.466.849s-9.691.245-12.466-.849a7.137,7.137,0,0,1-4.02-4.02c-1.1-2.784-.849-9.389-.849-12.466S3.5,43.278,4.594,40.5a7.137,7.137,0,0,1,4.02-4.02c2.784-1.1,9.389-.849,12.466-.849s9.691-.245,12.466.849a7.137,7.137,0,0,1,4.02,4.02c1.1,2.784.849,9.389.849,12.466S38.669,62.661,37.565,65.435Z" transform="translate(0.075 -31.825)" fill="#fff"/>
</svg>
