<svg xmlns="http://www.w3.org/2000/svg" width="42.29" height="42.289" viewBox="0 0 42.29 42.289">
  <path id="FontAwsome_linkedin-in_" data-name="FontAwsome (linkedin-in)" d="M9.466,42.3H.7V14.065H9.466ZM5.078,10.213a5.1,5.1,0,1,1,5.078-5.126A5.12,5.12,0,0,1,5.078,10.213ZM42.281,42.3H33.532V28.555c0-3.276-.066-7.476-4.558-7.476-4.558,0-5.257,3.559-5.257,7.24V42.3H14.958V14.065h8.409v3.851h.123a9.213,9.213,0,0,1,8.3-4.559c8.873,0,10.5,5.843,10.5,13.433V42.3Z" transform="translate(0 -0.01)" fill="#fff"/>
</svg>
