<svg xmlns="http://www.w3.org/2000/svg" width="42.289" height="42.289" viewBox="0 0 42.289 42.289">
  <path id="FontAwsome_whatsapp_" data-name="FontAwsome (whatsapp)" d="M35.955,38.145A20.962,20.962,0,0,0,2.973,63.434L0,74.289l11.11-2.917a20.892,20.892,0,0,0,10.015,2.549h.009a20.823,20.823,0,0,0,14.82-35.776ZM21.135,70.391a17.387,17.387,0,0,1-8.873-2.426l-.632-.378L5.041,69.314,6.8,62.886l-.415-.661a17.451,17.451,0,1,1,32.368-9.26A17.612,17.612,0,0,1,21.135,70.391Zm9.553-13.045c-.519-.264-3.1-1.529-3.578-1.7s-.831-.264-1.18.264-1.35,1.7-1.661,2.058-.614.4-1.133.132c-3.077-1.539-5.1-2.747-7.127-6.23-.538-.925.538-.859,1.539-2.86a.97.97,0,0,0-.047-.916c-.132-.264-1.18-2.841-1.614-3.889-.425-1.019-.859-.878-1.18-.9-.3-.019-.651-.019-1-.019a1.94,1.94,0,0,0-1.4.651,5.884,5.884,0,0,0-1.831,4.37c0,2.577,1.878,5.069,2.133,5.418s3.691,5.635,8.949,7.91c3.323,1.435,4.625,1.558,6.287,1.312,1.01-.151,3.1-1.265,3.53-2.492a4.379,4.379,0,0,0,.3-2.492C31.556,57.732,31.207,57.6,30.688,57.345Z" transform="translate(0 -32)" fill="#fff"/>
</svg>
