<svg xmlns="http://www.w3.org/2000/svg" width="37.788" height="37.788" viewBox="0 0 37.788 37.788">
  <path id="user" d="M34.791,23.988a17.7,17.7,0,0,0-4.514-2.826,1.476,1.476,0,0,0-1.2,2.7,14.763,14.763,0,0,1,3.765,2.346,5.886,5.886,0,0,1,1.994,4.424V33.36a1.478,1.478,0,0,1-1.476,1.476H4.428A1.478,1.478,0,0,1,2.952,33.36V30.629a5.886,5.886,0,0,1,1.994-4.424c1.491-1.311,5.837-4.359,13.948-4.359a10.936,10.936,0,1,0-6.653-2.267A20.521,20.521,0,0,0,3,23.988a8.838,8.838,0,0,0-3,6.642V33.36a4.433,4.433,0,0,0,4.428,4.428H33.36a4.433,4.433,0,0,0,4.428-4.428V30.629A8.838,8.838,0,0,0,34.791,23.988ZM10.923,10.923a7.971,7.971,0,1,1,7.971,7.971A7.98,7.98,0,0,1,10.923,10.923Zm0,0" transform="translate(0 0)" fill="#0d73a5"/>
</svg>
