<svg xmlns="http://www.w3.org/2000/svg" width="45.965" height="40.399" viewBox="0 0 45.965 40.399">
  <path id="mortarboard" d="M43.272,60.971v-18.6l1.818-.679a1.347,1.347,0,0,0,0-2.523l-21.636-8.08a1.346,1.346,0,0,0-.942,0L.876,39.165a1.347,1.347,0,0,0,0,2.523l8.966,3.348a25.476,25.476,0,0,0-1.672,10.2,1.347,1.347,0,0,0,1.847,1.25,19.5,19.5,0,0,1,6.233-1.25c2.841,0,5.863,2.376,5.892,2.4a1.347,1.347,0,0,0,1.682,0c.834-.667,3.518-2.4,5.892-2.4a19.638,19.638,0,0,1,6.233,1.25,1.347,1.347,0,0,0,1.847-1.25,25.661,25.661,0,0,0-1.672-10.2l4.455-1.664v17.6a4.407,4.407,0,0,0-1.762,1.977,10.081,10.081,0,0,0-.931,4.411v2.693A1.347,1.347,0,0,0,39.232,71.4h5.387a1.347,1.347,0,0,0,1.347-1.347V67.359a10.081,10.081,0,0,0-.931-4.411,4.407,4.407,0,0,0-1.762-1.977ZM22.982,33.784l17.787,6.642L22.982,47.069,5.2,40.426Zm12.109,19.59a20.346,20.346,0,0,0-5.375-.828,13.113,13.113,0,0,0-6.733,2.384,13.113,13.113,0,0,0-6.733-2.384,20.347,20.347,0,0,0-5.375.828,22.321,22.321,0,0,1,1.491-7.4l10.147,3.789a1.346,1.346,0,0,0,.942,0L33.6,45.978A22.326,22.326,0,0,1,35.091,53.374Zm8.181,15.332H40.578V67.359a7.475,7.475,0,0,1,.647-3.207c.344-.688.653-.833.7-.833s.356.145.7.833a7.475,7.475,0,0,1,.647,3.207Z" transform="translate(0 -31)" fill="#0d73a5"/>
</svg>
