<svg id="grade" xmlns="http://www.w3.org/2000/svg" width="40.233" height="43.957" viewBox="0 0 40.233 43.957">
  <path id="Path_2" data-name="Path 2" d="M149.429,183.064l-1.572-5.167.321-.031a1.293,1.293,0,1,0-.247-2.575l-.841.081-1.427-4.691-1.623-5.336a1.3,1.3,0,0,0-2.488.044l-2.869,10.793-2.321.223a1.294,1.294,0,0,0,.122,2.582c.041,0,.084,0,.126-.006l1.363-.132-1.124,4.227a1.293,1.293,0,1,0,2.5.665l1.371-5.156,4.51-.435.432,1.42,1.292,4.247a1.293,1.293,0,1,0,2.475-.753Zm-8-7.146,1.456-5.477,1.577,5.185Z" transform="translate(-125.398 -150.254)" fill="#0d73a5"/>
  <path id="Path_3" data-name="Path 3" d="M290.475,109.948a1.293,1.293,0,0,0,1.293-1.293v-2.778l1.433.083.076,0a1.293,1.293,0,0,0,.074-2.585l-1.582-.092v-1.592a1.293,1.293,0,0,0-2.587,0v1.442l-1.433-.083a1.293,1.293,0,0,0-.15,2.582l1.582.092v2.928A1.294,1.294,0,0,0,290.475,109.948Z" transform="translate(-263.55 -91.743)" fill="#0d73a5"/>
  <path id="Path_4" data-name="Path 4" d="M41.857,43.954C26.043,43.737,20.09,31.2,21.908,20.031c1.542-9.466,8.447-17.2,19.949-19.4a39.606,39.606,0,0,1,11.2-.425,1.294,1.294,0,1,1-.244,2.575,36.633,36.633,0,0,0-10.961.473C30.9,5.541,25.629,13.272,24.461,20.446c-1.439,8.84,2.576,20.677,17.4,20.928,18.748.319,21.622-23.38,12.091-33.511a1.293,1.293,0,0,1,1.884-1.772C66.765,17.714,63.1,44.262,41.857,43.954Z" transform="translate(-21.592 0)" fill="#0d73a5"/>
  <g id="Group_13" data-name="Group 13" transform="translate(20.264 0)">
    <path id="Path_5" data-name="Path 5" d="M257.906,250.047l-1.292-4.247v-8.89l1.427,4.691.841-.081a1.293,1.293,0,1,1,.247,2.575l-.321.031,1.572,5.167a1.293,1.293,0,1,1-2.475.753Z" transform="translate(-256.614 -216.484)" fill="#0d73a5"/>
    <path id="Path_6" data-name="Path 6" d="M256.614,3.255V.632a39.606,39.606,0,0,1,11.2-.425,1.294,1.294,0,1,1-.244,2.575A36.633,36.633,0,0,0,256.614,3.255Z" transform="translate(-256.614 0)" fill="#0d73a5"/>
    <path id="Path_7" data-name="Path 7" d="M256.614,104.194v-2.58c18.748.319,21.622-23.38,12.091-33.511a1.293,1.293,0,0,1,1.884-1.772C281.522,77.954,277.86,104.5,256.614,104.194Z" transform="translate(-256.614 -60.24)" fill="#0d73a5"/>
  </g>
</svg>
