<svg id="university_1_" data-name="university(1)" xmlns="http://www.w3.org/2000/svg" width="45.965" height="45.965" viewBox="0 0 45.965 45.965">
  <g id="Group_12" data-name="Group 12" transform="translate(0 0)">
    <g id="Group_11" data-name="Group 11" transform="translate(0)">
      <circle id="Ellipse_4" data-name="Ellipse 4" cx="1.611" cy="1.611" r="1.611" transform="translate(21.264 7.84)" fill="#0d73a5"/>
      <path id="Path_1" data-name="Path 1" d="M45.64,43.14l-4.4-6.284a1.8,1.8,0,0,0-1.471-.766H32.588V19.751a2.244,2.244,0,0,1,4.489,0V29a1.8,1.8,0,0,0,3.591,0V17.417h3.5a1.8,1.8,0,0,0,1.8-1.8V10.773a1.8,1.8,0,0,0-1.1-1.654L23.637.142a1.8,1.8,0,0,0-1.4,0L1.093,9.121A1.8,1.8,0,0,0,0,10.773v4.848a1.8,1.8,0,0,0,1.8,1.8H4.758V36.809l-.035.046L.324,43.14A1.8,1.8,0,0,0,1.8,45.965H44.169A1.8,1.8,0,0,0,45.64,43.14ZM3.591,13.826V11.962L22.939,3.746l19.435,8.218v1.862ZM29,19.751V36.09H24.508V19.751a2.244,2.244,0,0,1,4.489,0Zm-8.08,0V36.09H16.429V19.751a2.244,2.244,0,0,1,4.489,0Zm-8.08,0V36.09H8.349V19.751a2.244,2.244,0,0,1,4.489,0ZM5.244,42.374l1.885-2.693H38.835l1.885,2.693Z" transform="translate(0 0)" fill="#0d73a5"/>
    </g>
  </g>
</svg>
