<svg xmlns="http://www.w3.org/2000/svg" width="71.429" height="83.333" viewBox="0 0 71.429 83.333">
  <path id="FontAwsome_uniregistry_" data-name="FontAwsome (uniregistry)" d="M35.714,115.333a35.67,35.67,0,0,0,19.866-5.99H15.867A35.564,35.564,0,0,0,35.714,115.333ZM19.141,79.414V77.108H0v2.307c0,.465,0,.93.019,1.376H19.2c-.037-.446-.056-.911-.056-1.376Zm3.813,10.6H1.581A33.787,33.787,0,0,0,3.367,94.63H29.092a16.937,16.937,0,0,1-6.138-4.613Zm-3.292-6.455H.242a37.871,37.871,0,0,0,.725,4.148H21.373A16.256,16.256,0,0,1,19.661,83.562Zm-.521-12.891H0V73.89H19.141Zm0-32.217H0v.911H19.141Zm0-6.455H0v.465H19.141Zm0,12.891H0v1.376H19.141Zm0,19.345H0v2.753H19.141Zm0-12.891H0v1.842H19.141Zm0,6.436H0v2.307H19.141ZM50.056,87.711H70.461a30.688,30.688,0,0,0,.725-4.148H51.767A16.952,16.952,0,0,1,50.056,87.711Zm2.232-34.542H71.429V51.345H52.288Zm0,6.92H71.429V57.781H52.288Zm0-13.821H71.429V44.891H52.288Zm0-14.267v.465H71.429V32Zm-37.76,76.432H56.882a35.915,35.915,0,0,0,5.99-5.525H8.352a38.789,38.789,0,0,0,6.176,5.525Zm37.76-69.066H71.429v-.911H52.288Zm0,27.623H71.429V64.236H52.288ZM7.217,101.513H64.007a35.338,35.338,0,0,0,3.311-5.06H4.278A34.859,34.859,0,0,0,7.217,101.513Zm35.119-6.9h25.93A37.4,37.4,0,0,0,69.847,90H48.456A16.467,16.467,0,0,1,42.336,94.612Zm9.952-15.2a11.177,11.177,0,0,1-.074,1.376H71.391c.019-.465.037-.911.037-1.376V77.108H52.288Zm0-5.525H71.429V70.672H52.288Z" transform="translate(0 -32)" fill="#0f6dc2"/>
</svg>
