<svg xmlns="http://www.w3.org/2000/svg" width="63.289" height="88.041" viewBox="0 0 63.289 88.041">
  <path id="FontAwsome_foursquare_" data-name="FontAwsome (foursquare)" d="M55.564,3H8.581C2.132,3,0,7.867,0,10.928v74.6c0,3.491,2.081,4.764,3.13,5.176,1.066.43,3.921.791,5.658-1.221C30.955,63.792,31.333,63.362,31.333,63.362c.533-.585.585-.533,1.169-.533H46.845c6.036,0,6.982-4.334,7.618-6.827l8.358-41.789C64.283,6.921,62.443,3,55.564,3Zm-2.8,12.692L50.8,25.958a3.235,3.235,0,0,1-2.906,2.27H29.6a3.373,3.373,0,0,0-3.543,3.491v2.236A3.414,3.414,0,0,0,29.6,37.5H45.143a2.769,2.769,0,0,1,2.545,3.13c-.31,1.531-1.806,9.252-1.96,10.112a3.065,3.065,0,0,1-2.906,2.322H30.181c-2.322,0-2.958.31-4.557,2.167,0,0-1.531,1.96-15.392,18.625-.155.155-.31.1-.31-.052V15.537a2.948,2.948,0,0,1,2.855-2.855H50.439a2.433,2.433,0,0,1,2.322,3.01Z" transform="translate(0 -3)" fill="#0f6dc2"/>
</svg>
