<svg xmlns="http://www.w3.org/2000/svg" width="87.143" height="81.333" viewBox="0 0 87.143 81.333">
  <path id="FontAwsome_university_" data-name="FontAwsome (university)" d="M103.143,49.428v2.9a1.452,1.452,0,0,1-1.452,1.452H97.333v2.179a2.179,2.179,0,0,1-2.179,2.179H23.988a2.179,2.179,0,0,1-2.179-2.179V53.785H17.452A1.452,1.452,0,0,1,16,52.333v-2.9a1.452,1.452,0,0,1,.9-1.342L59.016,32.11a1.452,1.452,0,0,1,1.111,0l42.119,15.976A1.452,1.452,0,0,1,103.143,49.428Zm-4.357,55.19H20.357A4.357,4.357,0,0,0,16,108.976v2.9a1.452,1.452,0,0,0,1.452,1.452H101.69a1.452,1.452,0,0,0,1.452-1.452v-2.9A4.357,4.357,0,0,0,98.786,104.619ZM30.524,61.047V95.9H23.988a2.179,2.179,0,0,0-2.179,2.179v3.631H97.333V98.083A2.179,2.179,0,0,0,95.155,95.9H88.619V61.047H77V95.9H65.381V61.047H53.762V95.9H42.143V61.047Z" transform="translate(-16 -32)" fill="#0f6dc2"/>
</svg>
