<svg xmlns="http://www.w3.org/2000/svg" width="103.683" height="82.933" viewBox="0 0 103.683 82.933">
  <path id="FontAwsome_code_" data-name="FontAwsome (code)" d="M45.158,82.89l-9.881-2.867a1.947,1.947,0,0,1-1.328-2.414L56.061,1.44A1.947,1.947,0,0,1,58.474.112l9.881,2.867a1.947,1.947,0,0,1,1.328,2.414L47.572,81.561A1.941,1.941,0,0,1,45.158,82.89ZM26.691,64.714,33.738,57.2a1.944,1.944,0,0,0-.13-2.786L18.932,41.5,33.608,28.59a1.93,1.93,0,0,0,.13-2.786l-7.047-7.516a1.946,1.946,0,0,0-2.754-.081L.595,40.075a1.931,1.931,0,0,0,0,2.835L23.938,64.8a1.931,1.931,0,0,0,2.754-.081Zm53,.1,23.343-21.885a1.931,1.931,0,0,0,0-2.835L79.7,18.19a1.962,1.962,0,0,0-2.754.081l-7.047,7.516a1.944,1.944,0,0,0,.13,2.786L84.7,41.5,70.024,54.412a1.93,1.93,0,0,0-.13,2.786l7.047,7.516a1.946,1.946,0,0,0,2.754.1Z" transform="translate(0.025 -0.037)" fill="#0f6dc2"/>
</svg>
