<svg xmlns="http://www.w3.org/2000/svg" width="128.111" height="76.867" viewBox="0 0 128.111 76.867">
  <path id="FontAwsome_graduation-cap_" data-name="FontAwsome (graduation-cap)" d="M124.58,81.854,68.744,64.7a15.991,15.991,0,0,0-9.366,0L3.539,81.854a4.713,4.713,0,0,0,0,9.126l9.734,2.991a15.774,15.774,0,0,0-3.579,9.388,6.177,6.177,0,0,0-.51,10.613l-5.11,23a3.2,3.2,0,0,0,3.125,3.9H18.43a3.2,3.2,0,0,0,3.127-3.9l-5.11-23a6.161,6.161,0,0,0-.36-10.513,9.443,9.443,0,0,1,4.142-7.35l39.148,12.028a16.009,16.009,0,0,0,9.366,0L124.58,90.981A4.714,4.714,0,0,0,124.58,81.854ZM70.623,114.26a22.408,22.408,0,0,1-13.129,0l-29.029-8.918-2.838,22.712c0,7.076,17.207,12.811,38.433,12.811s38.433-5.735,38.433-12.811L99.655,105.34Z" transform="translate(-0.005 -63.997)" fill="#0f6dc2"/>
</svg>
