<svg xmlns="http://www.w3.org/2000/svg" width="81.002" height="72" viewBox="0 0 81.002 72">
  <path id="FontAwsome_hand-holding-usd_" data-name="FontAwsome (hand-holding-usd)" d="M38.118,20.292,45.75,22.3a1.208,1.208,0,0,1,.932,1.139A1.239,1.239,0,0,1,45.4,24.623H40.393a4.219,4.219,0,0,1-1.574-.309,2.015,2.015,0,0,0-2.152.281L34,27.056a1.643,1.643,0,0,0-.316.374,1.606,1.606,0,0,0,.546,2.213,11.78,11.78,0,0,0,4.853,1.617V33.75A2.36,2.36,0,0,0,41.521,36h2.443a2.361,2.361,0,0,0,2.444-2.25V31.275c4.631-.506,8.134-4.359,7.523-8.859-.443-3.234-3.158-5.808-6.548-6.708L39.752,13.7a1.208,1.208,0,0,1-.932-1.139A1.239,1.239,0,0,1,40.1,11.377h5.006a4.219,4.219,0,0,1,1.579.309,2.016,2.016,0,0,0,2.152-.281l2.672-2.461a1.59,1.59,0,0,0,.305-.366,1.607,1.607,0,0,0-.54-2.219,11.787,11.787,0,0,0-4.854-1.617V2.25A2.36,2.36,0,0,0,43.979,0H41.536a2.36,2.36,0,0,0-2.443,2.25V4.725c-4.625.506-8.135,4.359-7.525,8.859C32.01,16.819,34.734,19.392,38.118,20.292ZM79.491,46.139a4.655,4.655,0,0,0-5.991,0L60.507,56.531A8.949,8.949,0,0,1,54.882,58.5H38.25a2.25,2.25,0,0,1,0-4.5H49.26a4.668,4.668,0,0,0,4.676-3.741A4.387,4.387,0,0,0,54,49.492,4.5,4.5,0,0,0,49.5,45H27a16.546,16.546,0,0,0-10.42,3.7L10.041,54H2.25A2.25,2.25,0,0,0,0,56.25v13.5A2.25,2.25,0,0,0,2.25,72H52.421a9,9,0,0,0,5.625-1.969L79.313,53.016a4.5,4.5,0,0,0,.18-6.877Z" fill="#0f6dc2"/>
</svg>
