<svg xmlns="http://www.w3.org/2000/svg" width="61.408" height="61.408" viewBox="0 0 61.408 61.408">
  <path id="FontAwsome_envelope-open_" data-name="FontAwsome (envelope-open)" d="M59.319,19.732C58.756,19.266,45.919,8.943,43.1,6.7,40.446,4.581,35.914,0,30.7,0,25.522,0,21.033,4.524,18.31,6.7,15.376,9.032,2.59,19.316,2.1,19.719A5.757,5.757,0,0,0,0,24.165V55.651a5.757,5.757,0,0,0,5.757,5.757H55.651a5.757,5.757,0,0,0,5.757-5.757V24.168a5.757,5.757,0,0,0-2.089-4.437Zm-3.668,35.2a.72.72,0,0,1-.72.72H6.477a.72.72,0,0,1-.72-.72V24.509a.719.719,0,0,1,.267-.56c1.9-1.537,13.048-10.5,15.875-12.748,2.179-1.74,5.974-5.444,8.8-5.444s6.7,3.762,8.8,5.444c2.827,2.248,13.973,11.213,15.876,12.751a.718.718,0,0,1,.267.559ZM51.814,32.418a1.439,1.439,0,0,1-.209,2.037c-3.475,2.792-7.109,5.709-8.507,6.82-2.722,2.176-7.212,6.7-12.394,6.7-5.211,0-9.749-4.586-12.394-6.7C16.957,40.2,13.3,37.268,9.8,34.455a1.439,1.439,0,0,1-.209-2.037l1.83-2.222a1.439,1.439,0,0,1,2.012-.207c3.432,2.759,7.024,5.641,8.463,6.785,2.105,1.682,5.963,5.444,8.8,5.444s6.626-3.7,8.8-5.444c1.439-1.144,5.031-4.026,8.463-6.785a1.439,1.439,0,0,1,2.012.207l1.83,2.222Z" fill="#0f6dc2"/>
</svg>
