<svg xmlns="http://www.w3.org/2000/svg" width="56.085" height="49.854" viewBox="0 0 56.085 49.854">
  <path id="FontAwsome_house-damage_" data-name="FontAwsome (house-damage)" d="M28.044,11.194,6.766,29.962a4.506,4.506,0,0,1-.533.326V48.3a1.557,1.557,0,0,0,1.558,1.558H22.322L18.7,42.764l10.137-6.232L22.976,24.924,37.392,38.242,27.255,44.474l3.887,5.38H48.3A1.557,1.557,0,0,0,49.855,48.3v-18a4.543,4.543,0,0,1-.512-.312ZM55.57,23.007,49.855,17.96V4.674A1.557,1.557,0,0,0,48.3,3.116H42.066a1.557,1.557,0,0,0-1.558,1.558V9.707L30.649,1a3.88,3.88,0,0,0-5.2,0L.519,23.007a1.558,1.558,0,0,0-.118,2.2l2.084,2.319a1.558,1.558,0,0,0,2.2.118l22.329-19.7a1.559,1.559,0,0,1,2.061,0L51.4,27.643a1.559,1.559,0,0,0,2.2-.118l2.084-2.319A1.557,1.557,0,0,0,55.57,23.007Z" transform="translate(-0.002)" fill="#0f6dc2"/>
</svg>
