<svg xmlns="http://www.w3.org/2000/svg" width="68.38" height="54.704" viewBox="0 0 68.38 54.704">
  <path id="FontAwsome_chalkboard-teacher_" data-name="FontAwsome (chalkboard-teacher)" d="M22.222,37.609a2.444,2.444,0,0,0-.754.116,14.094,14.094,0,0,1-4.374.738,14.106,14.106,0,0,1-4.375-.738,2.438,2.438,0,0,0-.753-.116A11.967,11.967,0,0,0,0,49.642,5.115,5.115,0,0,0,5.127,54.7H29.06a5.115,5.115,0,0,0,5.128-5.062A11.967,11.967,0,0,0,22.222,37.609ZM17.094,34.19A10.257,10.257,0,1,0,6.837,23.933,10.257,10.257,0,0,0,17.094,34.19ZM63.25,0H22.222a5.222,5.222,0,0,0-5.128,5.3v4.959a13.521,13.521,0,0,1,6.838,1.9V6.838H61.54V37.609H54.7V30.771H41.026v6.838H32.881a13.617,13.617,0,0,1,4.241,6.838H63.25a5.221,5.221,0,0,0,5.128-5.3V5.3A5.222,5.222,0,0,0,63.25,0Z" transform="translate(0.002)" fill="#0f6dc2"/>
</svg>
