<svg xmlns="http://www.w3.org/2000/svg" width="46.25" height="61.667" viewBox="0 0 46.25 61.667">
  <path id="FontAwsome_file-invoice-dollar_" data-name="FontAwsome (file-invoice-dollar)" d="M45.407,12.647,33.616.843A2.888,2.888,0,0,0,31.568,0h-.735V15.417H46.25v-.735A2.881,2.881,0,0,0,45.407,12.647ZM26.979,16.38V0H2.891A2.884,2.884,0,0,0,0,2.891V58.776a2.884,2.884,0,0,0,2.891,2.891H43.359a2.884,2.884,0,0,0,2.891-2.891V19.271H29.87A2.9,2.9,0,0,1,26.979,16.38ZM7.708,8.672a.963.963,0,0,1,.964-.964h9.635a.963.963,0,0,1,.964.964V10.6a.963.963,0,0,1-.964.964H8.672a.963.963,0,0,1-.964-.964Zm0,9.635V16.38a.963.963,0,0,1,.964-.964h9.635a.963.963,0,0,1,.964.964v1.927a.963.963,0,0,1-.964.964H8.672A.963.963,0,0,1,7.708,18.307ZM25.052,50.09v2.905a.963.963,0,0,1-.964.964H22.161a.963.963,0,0,1-.964-.964V50.069A6.9,6.9,0,0,1,17.42,48.7a.965.965,0,0,1-.069-1.462l1.415-1.35a.989.989,0,0,1,1.22-.088,2.9,2.9,0,0,0,1.544.448h3.386a1.514,1.514,0,0,0,1.421-1.589,1.572,1.572,0,0,0-1.056-1.533L19.861,41.5a5.451,5.451,0,0,1-3.8-5.226A5.364,5.364,0,0,1,21.2,30.848V27.943a.963.963,0,0,1,.964-.964h1.927a.963.963,0,0,1,.964.964v2.926a6.887,6.887,0,0,1,3.778,1.367A.965.965,0,0,1,28.9,33.7l-1.415,1.35a.989.989,0,0,1-1.22.088,2.889,2.889,0,0,0-1.544-.448H21.333a1.514,1.514,0,0,0-1.421,1.589,1.572,1.572,0,0,0,1.056,1.533l5.42,1.626a5.451,5.451,0,0,1,3.8,5.226,5.363,5.363,0,0,1-5.139,5.428Z" fill="#0f6dc2"/>
</svg>
