<svg xmlns="http://www.w3.org/2000/svg" width="54.25" height="62" viewBox="0 0 54.25 62">
  <path id="FontAwsome_calendar-check_" data-name="FontAwsome (calendar-check)" d="M52.8,19.375H1.453A1.453,1.453,0,0,1,0,17.922V13.562A5.812,5.812,0,0,1,5.812,7.75h5.812v-6.3A1.453,1.453,0,0,1,13.078,0h4.844a1.453,1.453,0,0,1,1.453,1.453v6.3h15.5v-6.3A1.453,1.453,0,0,1,36.328,0h4.844a1.453,1.453,0,0,1,1.453,1.453v6.3h5.812a5.812,5.812,0,0,1,5.812,5.812v4.359A1.453,1.453,0,0,1,52.8,19.375ZM1.453,23.25H52.8A1.453,1.453,0,0,1,54.25,24.7V56.187A5.812,5.812,0,0,1,48.437,62H5.812A5.812,5.812,0,0,1,0,56.187V24.7A1.453,1.453,0,0,1,1.453,23.25Zm40.36,11.619L38.4,31.43a1.453,1.453,0,0,0-2.055-.008L23.507,44.158l-5.568-5.613a1.453,1.453,0,0,0-2.055-.008l-3.439,3.411A1.453,1.453,0,0,0,12.437,44l10,10.083a1.453,1.453,0,0,0,2.055.008L41.8,36.923a1.453,1.453,0,0,0,.008-2.055Z" fill="#0f6dc2"/>
</svg>
