<svg xmlns="http://www.w3.org/2000/svg" width="64.097" height="49.853" viewBox="0 0 64.097 49.853">
  <path id="FontAwsome_cc-visa_" data-name="FontAwsome (cc-visa)" d="M52.313,54.178s.846,4.14,1.035,5.008H49.631c.367-.99,1.78-4.841,1.78-4.841-.022.033.367-1.013.59-1.658l.312,1.491ZM64.1,37.341v39.17a5.343,5.343,0,0,1-5.341,5.341H5.341A5.343,5.343,0,0,1,0,76.512V37.341A5.343,5.343,0,0,1,5.341,32H58.756A5.343,5.343,0,0,1,64.1,37.341ZM16.97,65.295,24,48.024H19.274L14.9,59.82l-.479-2.393-1.558-7.945a1.861,1.861,0,0,0-2.025-1.458h-7.2l-.078.345a17.658,17.658,0,0,1,4.7,1.9l3.984,15.023Zm10.5.022,2.8-17.293H25.806L23.013,65.317h4.462Zm15.568-5.653c.022-1.97-1.18-3.472-3.75-4.707-1.569-.79-2.526-1.324-2.526-2.137.022-.734.812-1.491,2.571-1.491a7.668,7.668,0,0,1,3.327.657l.4.189.612-3.739a11.113,11.113,0,0,0-4.006-.734c-4.418,0-7.523,2.359-7.545,5.72-.033,2.482,2.226,3.861,3.917,4.7,1.725.846,2.315,1.4,2.315,2.148-.022,1.157-1.4,1.691-2.682,1.691a8.914,8.914,0,0,1-4.2-.924l-.59-.278-.623,3.884a13.654,13.654,0,0,0,4.985.924c4.7.011,7.756-2.315,7.79-5.9Zm15.713,5.653L55.15,48.024H51.689a2.2,2.2,0,0,0-2.337,1.436L42.709,65.317h4.7s.768-2.137.935-2.593h5.742c.134.612.534,2.593.534,2.593Z" transform="translate(0 -32)" fill="#0f6dc2"/>
</svg>
